# This file uses meters as units for non-parametric coordinates.

mtllib LargePot.mtl
v -16.337357 10.395920 16.337355
v 16.337355 10.395922 16.337355
v -15.124467 120.837700 15.124462
v 15.124462 120.837685 15.124462
v -15.124461 120.837700 -15.124462
v 15.124462 120.837700 -15.124462
v -16.337357 10.395920 -16.337355
v 16.337353 10.395918 -16.337355
v -8.698833 119.665428 8.698833
v 8.698832 119.665428 8.698833
v 8.698832 119.665428 -8.698833
v -8.698833 119.665428 -8.698833
v -23.717907 77.084572 23.717903
v -23.717907 77.084572 -23.717903
v 23.717903 77.084564 -23.717903
v 23.717903 77.084564 23.717903
v -10.527820 -0.000008 -10.527818
v 10.527817 -0.000010 -10.527818
v 10.527817 -0.000010 10.527818
v -10.527820 0.000000 10.527818
v -11.743426 121.129784 11.743423
v -11.743426 121.129784 -11.743422
v 11.743421 121.129768 -11.743423
v 11.743423 121.129784 11.743422
v -14.641643 123.784660 14.641641
v 14.641639 123.784645 14.641641
v 12.157454 124.667229 12.157454
v -12.157456 124.667229 12.157454
v 14.641639 123.784645 -14.641641
v 12.157454 124.667229 -12.157454
v -14.641644 123.784645 -14.641641
v -12.157454 124.667229 -12.157454
v -16.900661 113.576942 -16.900660
v -16.900665 113.576942 16.900663
v 16.900660 113.576942 16.900663
v 16.900658 113.576942 -16.900660
v 15.657896 121.129784 0.000000
v -0.000001 121.129784 -15.657896
v -15.657893 121.129784 0.000000
v -22.534214 113.576942 0.000002
v -15.330838 118.542931 15.330839
v -20.165951 120.837700 0.000000
v -15.330838 118.542931 -15.330836
v -0.000001 120.837700 -20.165951
v 15.330835 118.542931 -15.330836
v 0.000000 113.576942 -22.534210
v 22.534214 113.576942 0.000002
v 20.165949 120.837715 0.000000
v 15.330837 118.542931 15.330839
v -0.000003 113.576942 22.534216
v -0.000001 120.837700 20.165951
v 14.453444 2.898708 -14.453444
v -14.453446 2.898710 -14.453444
v 14.453444 2.898708 14.453444
v -14.453446 2.898710 14.453444
v -11.743423 119.972084 11.743423
v -11.743423 119.972084 -11.743423
v 11.743423 119.972084 -11.743423
v 11.743423 119.972084 11.743423
v -11.743421 122.389107 11.743423
v 11.743423 122.389107 11.743423
v 11.743423 122.389107 -11.743423
v -11.743421 122.389107 -11.743423
v -21.059803 100.419914 21.059799
v -21.059799 100.419914 -21.059797
v 21.059799 100.419914 21.059799
v 21.059799 100.419914 -21.059797
v -0.000001 10.395920 21.783140
v 20.784632 41.583679 20.784634
v -0.000001 77.084572 31.623869
v -20.784634 41.583679 20.784634
v -0.000001 119.558113 11.743423
v 11.743423 119.558113 0.000000
v -0.000001 119.558113 -11.743423
v -11.743423 119.558113 0.000000
v -0.000001 77.084572 -31.623869
v 20.784632 41.583679 -20.784634
v -0.000001 10.395920 -21.783140
v -20.784634 41.583679 -20.784634
v -0.000001 0.000000 -14.051960
v 14.051959 0.000002 0.000000
v -0.000001 0.000000 14.051960
v -14.051959 0.000000 0.000000
v 21.783138 10.395918 0.000000
v 31.623867 77.084572 0.000000
v -21.783138 10.395918 0.000000
v -31.623867 77.084572 0.000000
v -0.000001 123.784645 19.522186
v 13.399547 125.426582 13.399548
v -0.000001 124.667213 16.209938
v -13.399549 125.426582 13.399548
v 19.522184 123.784645 0.000000
v 13.399547 125.426582 -13.399548
v 16.209938 124.667213 0.000000
v -0.000001 123.784645 -19.522186
v -13.399549 125.426582 -13.399548
v -0.000001 124.667213 -16.209938
v -19.522190 123.784645 0.000000
v -16.209938 124.667213 0.000000
v -0.000001 121.129784 15.657896
v -0.000001 41.583679 27.712843
v -0.000001 119.420113 0.000000
v -0.000001 41.583679 -27.712843
v -0.000001 0.000000 0.000000
v 27.712841 41.583672 0.000000
v -27.712841 41.583679 0.000000
v -0.000001 125.426582 17.866062
v 17.866062 125.426582 0.000000
v -0.000001 125.426582 -17.866062
v -17.866062 125.426582 0.000000
v -20.441116 118.542931 0.000002
v -0.000001 118.542931 -20.441114
v 20.441116 118.542931 0.000002
v -0.000001 118.542931 20.441118
v -0.000001 2.898710 -19.271259
v 19.271259 2.898708 0.000000
v -0.000001 2.898710 19.271259
v -19.271259 2.898708 0.000000
v -15.657901 119.972084 0.000000
v -0.000001 119.972084 -15.657898
v 15.657896 119.972084 0.000000
v -0.000001 119.972084 15.657898
v -0.000001 122.389122 15.657898
v 15.657896 122.389122 0.000000
v -0.000001 122.389122 -15.657898
v -15.657897 122.389122 0.000000
v -28.079731 100.419907 0.000002
v 0.000000 100.419907 28.079733
v 28.079729 100.419907 0.000002
v -0.000001 100.419914 -28.079727
vt 0.962405 0.155456
vt 0.977962 0.200012
vt 0.917849 0.200014
vt 0.917848 0.139901
vt 0.978035 0.139825
vt 0.998127 0.200012
vt 0.962407 0.244569
vt 0.917851 0.260126
vt 0.857737 0.200015
vt 0.873292 0.155458
vt 0.917847 0.119736
vt 0.978038 0.260199
vt 0.917851 0.280291
vt 0.873294 0.244571
vt 0.837572 0.200016
vt 0.857661 0.139828
vt 0.857664 0.260202
vt 0.092039 0.588547
vt 0.145032 0.572339
vt 0.143362 0.642377
vt 0.073324 0.640707
vt 0.070379 0.565829
vt 0.145752 0.542130
vt 0.197192 0.591054
vt 0.213399 0.644046
vt 0.141692 0.712414
vt 0.089532 0.693699
vt 0.043115 0.639986
vt 0.043739 0.537888
vt 0.146757 0.499991
vt 0.219910 0.569394
vt 0.243609 0.644767
vt 0.194685 0.696207
vt 0.140972 0.742623
vt 0.066814 0.715359
vt 0.000977 0.638982
vt 0.247851 0.542754
vt 0.285747 0.645771
vt 0.216345 0.718925
vt 0.139967 0.784762
vt 0.038873 0.741999
vt 0.242984 0.746866
vt 0.806424 0.047560
vt 0.835124 0.129867
vt 0.822976 0.129737
vt 0.797587 0.056189
vt 0.817292 0.036948
vt 0.851057 0.130035
vt 0.804538 0.211578
vt 0.795909 0.202741
vt 0.813669 0.129638
vt 0.790655 0.062958
vt 0.724824 0.016909
vt 0.724664 0.029056
vt 0.815147 0.222443
vt 0.725035 0.000977
vt 0.722121 0.240210
vt 0.722282 0.228062
vt 0.789138 0.195807
vt 0.801571 0.129514
vt 0.782514 0.070908
vt 0.724541 0.038363
vt 0.642408 0.045541
vt 0.651037 0.054378
vt 0.721911 0.256142
vt 0.631799 0.034676
vt 0.640521 0.209559
vt 0.649358 0.200930
vt 0.722404 0.218755
vt 0.781186 0.187663
vt 0.724378 0.050461
vt 0.657808 0.061312
vt 0.611822 0.127252
vt 0.623970 0.127381
vt 0.629653 0.220171
vt 0.595889 0.127083
vt 0.656290 0.194161
vt 0.722568 0.206658
vt 0.665760 0.069456
vt 0.633277 0.127480
vt 0.664432 0.186211
vt 0.645375 0.127605
vt 0.879893 0.559549
vt 0.870386 0.647865
vt 0.708873 0.639168
vt 0.719117 0.526978
vt 0.870355 0.736692
vt 0.707010 0.751810
vt 0.529073 0.629486
vt 0.534636 0.503174
vt 0.521040 0.755666
vt 0.411258 0.623142
vt 0.410832 0.509797
vt 0.398663 0.735786
vt 0.339858 0.619297
vt 0.337073 0.526834
vt 0.327160 0.710927
vt 0.312436 0.617821
vt 0.309765 0.533396
vt 0.300715 0.701470
vt 0.300565 0.617182
vt 0.298001 0.534499
vt 0.289137 0.699111
vt 0.591733 0.313142
vt 0.582225 0.401459
vt 0.420712 0.392761
vt 0.430956 0.280571
vt 0.582194 0.490285
vt 0.418850 0.505403
vt 0.240912 0.383079
vt 0.246475 0.256767
vt 0.232879 0.509259
vt 0.123098 0.376735
vt 0.122672 0.263390
vt 0.110502 0.489379
vt 0.051697 0.372890
vt 0.048913 0.280427
vt 0.039000 0.464520
vt 0.024275 0.371414
vt 0.021605 0.286989
vt 0.012554 0.455063
vt 0.012404 0.370775
vt 0.009841 0.288092
vt 0.000977 0.452704
vt 0.723179 0.184733
vt 0.716731 0.184683
vt 0.717228 0.121301
vt 0.723676 0.121351
vt 0.717725 0.057918
vt 0.724173 0.057969
vt 0.729604 0.121398
vt 0.729107 0.184780
vt 0.730101 0.058015
vt 0.983453 0.127795
vt 0.983950 0.064413
vt 0.989878 0.064460
vt 0.989381 0.127842
vt 0.977005 0.127745
vt 0.977502 0.064363
vt 0.984447 0.001031
vt 0.990375 0.001077
vt 0.977999 0.000980
vt 0.759052 0.802907
vt 0.749545 0.891223
vt 0.588031 0.882526
vt 0.598275 0.770336
vt 0.749513 0.980050
vt 0.586169 0.995167
vt 0.408231 0.872844
vt 0.413794 0.746532
vt 0.400198 0.999023
vt 0.290417 0.866500
vt 0.289991 0.753155
vt 0.277822 0.979144
vt 0.219016 0.862655
vt 0.216232 0.770192
vt 0.206319 0.954285
vt 0.191594 0.861179
vt 0.188924 0.776754
vt 0.179873 0.944828
vt 0.179723 0.860539
vt 0.177160 0.777857
vt 0.168296 0.942468
vt 0.232412 0.253352
vt 0.241470 0.127242
vt 0.421186 0.138386
vt 0.418407 0.251008
vt 0.110201 0.232479
vt 0.123711 0.119941
vt 0.248060 0.000979
vt 0.432341 0.026282
vt 0.582623 0.148395
vt 0.581869 0.237219
vt 0.038902 0.207039
vt 0.052344 0.115516
vt 0.124207 0.006596
vt 0.592848 0.060159
vt 0.012535 0.197368
vt 0.024935 0.113816
vt 0.050312 0.023033
vt 0.000977 0.194914
vt 0.013070 0.113081
vt 0.022951 0.029373
vt 0.011178 0.030380
vt 0.856163 0.127704
vt 0.857843 0.064342
vt 0.864290 0.064513
vt 0.862609 0.127875
vt 0.859524 0.000980
vt 0.865970 0.001151
vt 0.870215 0.064670
vt 0.868535 0.128032
vt 0.871896 0.001308
vt 0.964862 0.127795
vt 0.965359 0.064413
vt 0.971287 0.064460
vt 0.970790 0.127842
vt 0.958414 0.127745
vt 0.958911 0.064362
vt 0.965856 0.001031
vt 0.971784 0.001077
vt 0.959408 0.000980
vn -0.689997 -0.218651 0.689997
vn -0.000000 -0.207596 0.978215
vn 0.000000 -0.141380 0.989955
vn -0.699195 -0.149170 0.699195
vn 0.689997 -0.218651 0.689997
vn 0.699196 -0.149170 0.699195
vn 0.707089 -0.007052 0.707089
vn 0.000000 -0.006377 0.999980
vn -0.707089 -0.007052 0.707089
vn 0.033981 0.998845 -0.033981
vn 0.000000 0.999104 -0.042312
vn -0.000000 1.000000 -0.000000
vn 0.042313 0.999104 -0.000000
vn -0.033981 0.998845 -0.033981
vn -0.042313 0.999104 -0.000000
vn -0.033981 0.998845 0.033980
vn -0.000000 0.999104 0.042312
vn 0.033981 0.998845 0.033981
vn -0.707089 -0.007052 -0.707089
vn 0.000000 -0.006376 -0.999980
vn 0.000000 -0.141380 -0.989955
vn -0.699195 -0.149170 -0.699195
vn 0.707089 -0.007052 -0.707089
vn 0.699196 -0.149170 -0.699195
vn 0.689997 -0.218651 -0.689997
vn -0.000000 -0.207596 -0.978215
vn -0.689997 -0.218651 -0.689997
vn -0.158756 -0.974471 -0.158756
vn -0.000000 -0.976752 -0.214370
vn -0.000000 -1.000000 0.000000
vn -0.214370 -0.976752 0.000000
vn 0.158756 -0.974471 -0.158756
vn 0.214370 -0.976752 0.000000
vn 0.158756 -0.974471 0.158756
vn -0.000000 -0.976752 0.214370
vn -0.158756 -0.974471 0.158756
vn 0.978215 -0.207596 -0.000000
vn 0.989955 -0.141380 -0.000000
vn 0.999980 -0.006376 0.000000
vn -0.978215 -0.207596 0.000000
vn -0.989955 -0.141380 0.000000
vn -0.999980 -0.006377 -0.000000
vn -0.640865 0.422592 0.640865
vn 0.000000 0.415142 0.909757
vn 0.000001 0.921675 0.387964
vn -0.290128 0.911949 0.290128
vn 0.640865 0.422592 0.640865
vn 0.290129 0.911948 0.290130
vn -0.517681 0.681187 -0.517679
vn 0.000000 0.642327 -0.766431
vn 0.517681 0.681187 -0.517679
vn 0.909757 0.415142 0.000001
vn 0.387965 0.921674 0.000000
vn 0.640865 0.422592 -0.640865
vn 0.290130 0.911948 -0.290130
vn -0.517681 0.681186 0.517680
vn -0.766432 0.642326 0.000000
vn -0.000000 0.415142 -0.909757
vn -0.000000 0.921674 -0.387965
vn -0.640866 0.422592 -0.640865
vn -0.290129 0.911948 -0.290130
vn 0.517681 0.681187 0.517679
vn -0.000000 0.642327 0.766431
vn -0.909757 0.415142 0.000000
vn -0.387963 0.921675 -0.000001
vn 0.766432 0.642326 0.000000
vn 0.697043 0.168104 -0.697045
vn 0.000000 0.157576 -0.987507
vn -0.000000 -0.000000 -1.000000
vn 0.707108 -0.000001 -0.707106
vn -0.697044 0.168104 -0.697044
vn -0.707106 0.000000 -0.707107
vn -0.987507 0.157576 0.000000
vn -1.000000 0.000000 0.000000
vn -0.697044 0.168104 0.697044
vn -0.707106 -0.000000 0.707108
vn -0.645536 0.408127 -0.645535
vn -0.921492 0.388397 0.000000
vn -0.921492 0.388397 -0.000000
vn -0.645536 0.408127 -0.645536
vn -0.645535 0.408127 0.645536
vn -0.645535 0.408127 0.645536
vn -0.992887 0.119057 0.000000
vn -0.701456 0.126167 0.701457
vn -0.695591 0.179740 0.695591
vn -0.985346 0.170567 0.000001
vn -0.701457 0.126168 -0.701455
vn -0.695591 0.179740 -0.695591
vn 0.000000 0.170567 -0.985346
vn 0.000000 0.119057 -0.992887
vn 0.695591 0.179740 -0.695591
vn 0.701456 0.126166 -0.701457
vn -0.000000 0.388396 -0.921492
vn 0.645536 0.408127 -0.645536
vn 0.645535 0.408127 -0.645536
vn 0.000000 0.388397 -0.921492
vn 0.645535 0.408127 0.645536
vn 0.921492 0.388397 0.000000
vn 0.921492 0.388397 0.000000
vn 0.645535 0.408127 0.645536
vn 0.992887 0.119056 -0.000002
vn 0.985346 0.170568 -0.000000
vn 0.701458 0.126168 0.701455
vn 0.695592 0.179740 0.695590
vn -0.000000 0.388397 0.921492
vn 0.000000 0.388396 0.921492
vn -0.000001 0.119058 0.992887
vn -0.000000 0.170568 0.985346
vn -0.000000 -0.527795 -0.849372
vn -0.598881 -0.531679 -0.598881
vn 0.598881 -0.531679 -0.598881
vn 0.849372 -0.527795 0.000000
vn 0.598881 -0.531679 0.598881
vn 0.000000 -0.527795 0.849372
vn -0.598881 -0.531679 0.598881
vn -0.849372 -0.527795 0.000000
vn 0.707108 -0.000001 0.707105
vn 1.000000 -0.000001 0.000000
vn 0.451445 0.892299 -0.000000
vn 0.332006 0.882918 0.332005
vn 0.332006 0.882918 -0.332005
vn -0.000000 -0.000000 1.000000
vn 0.000000 0.892300 0.451444
vn -0.332005 0.882919 0.332004
vn -0.451445 0.892299 -0.000000
vn -0.332006 0.882918 -0.332007
vn -0.000000 0.892299 -0.451445
vn -0.000000 0.157576 0.987507
vn 0.697043 0.168104 0.697045
vn 0.987507 0.157577 -0.000000
vn -0.973992 0.226581 -0.000000
vn -0.687055 0.236452 -0.687056
vn -0.687056 0.236452 0.687055
vn 0.000000 0.226580 0.973992
vn 0.687055 0.236452 0.687056
vn 0.973992 0.226580 0.000000
vn 0.687055 0.236452 -0.687056
vn 0.000000 0.226581 -0.973992
s 1
usemtl initialShadingGroup
f 1/143/1 68/144/2 101/145/3 71/146/4
f 68/144/2 2/147/5 69/148/6 101/145/3
f 101/145/3 69/148/6 16/151/7 70/149/8
f 71/146/4 101/145/3 70/149/8 13/150/9
s 2
f 9/1/10 72/2/11 102/3/12 75/4/13
f 72/2/11 10/7/14 73/8/15 102/3/12
f 102/3/12 73/8/15 11/14/16 74/9/17
f 75/4/13 102/3/12 74/9/17 12/10/18
s 1
f 14/164/19 76/165/20 103/166/21 79/167/22
f 76/165/20 15/170/23 77/171/24 103/166/21
f 103/166/21 77/171/24 8/177/25 78/172/26
f 79/167/22 103/166/21 78/172/26 7/173/27
f 17/18/28 80/19/29 104/20/30 83/21/31
f 80/19/29 18/24/32 81/25/33 104/20/30
f 104/20/30 81/25/33 19/33/34 82/26/35
f 83/21/31 104/20/30 82/26/35 20/27/36
f 2/83/5 84/84/37 105/85/38 69/86/6
f 84/84/37 8/87/25 77/88/24 105/85/38
f 105/85/38 77/88/24 15/91/23 85/89/39
f 69/86/6 105/85/38 85/89/39 16/90/7
f 7/104/27 86/105/40 106/106/41 79/107/22
f 86/105/40 1/108/1 71/109/4 106/106/41
f 106/106/41 71/109/4 13/112/9 87/110/42
f 79/107/22 106/106/41 87/110/42 14/111/19
s 2
f 25/43/43 88/44/44 107/45/45 91/46/46
f 88/44/44 26/49/47 89/50/48 107/45/45
f 107/45/45 89/50/48 27/59/49 90/51/50
f 91/46/46 107/45/45 90/51/50 28/52/51
f 26/49/47 92/57/52 108/58/53 89/50/48
f 92/57/52 29/67/54 93/68/55 108/58/53
f 108/58/53 93/68/55 30/77/56 94/69/57
f 89/50/48 108/58/53 94/69/57 27/59/49
f 29/67/54 95/73/58 109/74/59 93/68/55
f 95/73/58 31/63/60 96/64/61 109/74/59
f 109/74/59 96/64/61 32/72/62 97/80/63
f 93/68/55 109/74/59 97/80/63 30/77/56
f 31/63/60 98/53/64 110/54/65 96/64/61
f 98/53/64 25/43/43 91/46/46 110/54/65
f 110/54/65 91/46/46 28/52/51 99/62/66
f 96/64/61 110/54/65 99/62/66 32/72/62
f 60/185/67 123/186/68 100/187/69 21/188/70
f 123/186/68 61/189/71 24/190/72 100/187/69
f 24/125/72 61/126/71 124/127/73 37/128/74
f 124/127/73 62/129/75 23/130/76 37/128/74
s 1
f 33/117/77 40/116/78 111/119/79 43/120/80
f 40/116/78 34/118/81 41/121/82 111/119/79
s 2
f 111/119/83 41/121/84 3/124/85 42/122/86
f 43/120/87 111/119/83 42/122/86 5/123/88
f 5/181/88 44/182/89 112/179/90 43/178/87
f 44/182/89 6/184/91 45/183/92 112/179/90
s 1
f 112/179/93 45/183/94 36/180/95 46/175/96
f 43/178/80 112/179/93 46/175/96 33/174/77
f 35/96/97 47/95/98 113/98/99 49/99/100
f 47/95/98 36/97/95 45/100/94 113/98/99
s 2
f 113/98/101 45/100/92 6/103/91 48/101/102
f 49/99/103 113/98/101 48/101/102 4/102/104
s 1
f 34/156/81 50/155/105 114/158/106 41/159/82
f 50/155/105 35/157/97 49/160/100 114/158/106
s 2
f 114/158/107 49/160/103 4/163/104 51/161/108
f 41/159/84 114/158/107 51/161/108 3/162/85
s 1
f 7/29/27 78/30/26 115/23/109 53/22/110
f 78/30/26 8/37/25 52/31/111 115/23/109
f 115/23/109 52/31/111 18/24/32 80/19/29
f 53/22/110 115/23/109 80/19/29 17/18/28
f 8/37/25 84/38/37 116/32/112 52/31/111
f 84/38/37 2/42/5 54/39/113 116/32/112
f 116/32/112 54/39/113 19/33/34 81/25/33
f 52/31/111 116/32/112 81/25/33 18/24/32
f 2/42/5 68/40/2 117/34/114 54/39/113
f 68/40/2 1/41/1 55/35/115 117/34/114
f 117/34/114 55/35/115 20/27/36 82/26/35
f 54/39/113 117/34/114 82/26/35 19/33/34
f 1/41/1 86/36/40 118/28/116 55/35/115
f 86/36/40 7/29/27 53/22/110 118/28/116
f 118/28/116 53/22/110 17/18/28 83/21/31
f 55/35/115 118/28/116 83/21/31 20/27/36
s 2
f 22/134/117 39/135/118 119/136/119 57/137/120
f 39/135/118 21/140/70 56/141/121 119/136/119
f 119/11/119 56/5/121 9/1/10 75/4/13
f 57/16/120 119/11/119 75/4/13 12/10/18
f 23/194/76 38/195/122 120/196/123 58/197/124
f 38/195/122 22/200/117 57/201/120 120/196/123
f 120/15/123 57/16/120 12/10/18 74/9/17
f 58/17/124 120/15/123 74/9/17 11/14/16
f 24/125/72 37/128/74 121/131/125 59/132/126
f 37/128/74 23/130/76 58/133/124 121/131/125
f 121/13/125 58/17/124 11/14/16 73/8/15
f 59/12/126 121/13/125 73/8/15 10/7/14
f 21/188/70 100/187/69 122/191/127 56/192/121
f 100/187/69 24/190/72 59/193/126 122/191/127
f 122/6/127 59/12/126 10/7/14 72/2/11
f 56/5/121 122/6/127 72/2/11 9/1/10
f 3/47/85 51/48/108 88/44/44 25/43/43
f 51/48/108 4/55/104 26/49/47 88/44/44
f 123/60/68 60/61/67 28/52/51 90/51/50
f 61/70/71 123/60/68 90/51/50 27/59/49
f 26/49/47 4/55/104 48/65/102 92/57/52
f 48/65/102 6/75/91 29/67/54 92/57/52
f 124/78/73 61/70/71 27/59/49 94/69/57
f 62/81/75 124/78/73 94/69/57 30/77/56
f 29/67/54 6/75/91 44/76/89 95/73/58
f 44/76/89 5/66/88 31/63/60 95/73/58
f 125/199/128 63/202/129 22/200/117 38/195/122
f 23/194/76 62/198/75 125/199/128 38/195/122
f 125/82/128 62/81/75 30/77/56 97/80/63
f 63/79/129 125/82/128 97/80/63 32/72/62
f 31/63/60 5/66/88 42/56/86 98/53/64
f 42/56/86 3/47/85 25/43/43 98/53/64
f 126/139/130 60/142/67 21/140/70 39/135/118
f 22/134/117 63/138/129 126/139/130 39/135/118
f 126/71/130 63/79/129 32/72/62 99/62/66
f 60/61/67 126/71/130 99/62/66 28/52/51
s 1
f 14/111/19 87/110/42 127/113/131 65/114/132
f 87/110/42 13/112/9 64/115/133 127/113/131
f 127/113/131 64/115/133 34/118/81 40/116/78
f 65/114/132 127/113/131 40/116/78 33/117/77
f 13/150/9 70/149/8 128/152/134 64/153/133
f 70/149/8 16/151/7 66/154/135 128/152/134
f 128/152/134 66/154/135 35/157/97 50/155/105
f 64/153/133 128/152/134 50/155/105 34/156/81
f 16/90/7 85/89/39 129/92/136 66/93/135
f 85/89/39 15/91/23 67/94/137 129/92/136
f 129/92/136 67/94/137 36/97/95 47/95/98
f 66/93/135 129/92/136 47/95/98 35/96/97
f 33/174/77 46/175/96 130/169/138 65/168/132
f 46/175/96 36/180/95 67/176/137 130/169/138
f 130/169/138 67/176/137 15/170/23 76/165/20
f 65/168/132 130/169/138 76/165/20 14/164/19
