# This file uses meters as units for non-parametric coordinates.

mtllib MediumPot.mtl
v -16.337357 6.583982 16.337355
v 16.337355 6.583984 16.337355
v -15.124467 76.529404 15.124462
v 15.124462 76.529388 15.124462
v -15.124461 76.529404 -15.124462
v 15.124462 76.529404 -15.124462
v -16.337357 6.583982 -16.337355
v 16.337353 6.583982 -16.337355
v -8.698833 75.786957 8.698833
v 8.698832 75.786957 8.698833
v 8.698832 75.786957 -8.698833
v -8.698833 75.786957 -8.698833
v -23.717907 48.819496 23.717903
v -23.717907 48.819496 -23.717903
v 23.717903 48.819489 -23.717903
v 23.717903 48.819489 23.717903
v -10.527820 -0.000006 -10.527818
v 10.527817 -0.000007 -10.527818
v 10.527817 -0.000007 10.527818
v -10.527820 -0.000001 10.527818
v -11.743426 76.714371 11.743423
v -11.743426 76.714371 -11.743422
v 11.743421 76.714371 -11.743423
v 11.743423 76.714371 11.743422
v -14.641643 80.374176 14.641641
v 14.641639 80.374161 14.641641
v 12.157454 80.933121 12.157454
v -12.157456 80.933121 12.157454
v 14.641639 80.374161 -14.641641
v 12.157454 80.933121 -12.157454
v -14.641644 80.374161 -14.641641
v -12.157454 80.933121 -12.157454
v -16.900661 71.930984 -16.900660
v -16.900665 71.930984 16.900663
v 16.900660 71.930984 16.900663
v 16.900658 71.930984 -16.900660
v 15.657896 76.714371 0.000000
v -0.000001 76.714371 -15.657896
v -15.657893 76.714371 0.000000
v -22.534214 71.930984 0.000002
v -15.330838 75.076050 15.330839
v -20.165951 76.529404 0.000000
v -15.330838 75.076050 -15.330836
v -0.000001 76.529404 -20.165951
v 15.330835 75.076050 -15.330836
v 0.000000 71.930984 -22.534210
v 22.534214 71.930984 0.000002
v 20.165949 76.529404 0.000000
v 15.330837 75.076050 15.330839
v -0.000003 71.930984 22.534216
v -0.000001 76.529404 20.165951
v 14.453444 1.835820 -14.453444
v -14.453446 1.835822 -14.453444
v 14.453444 1.835820 14.453444
v -14.453446 1.835822 14.453444
v -11.743423 75.981171 11.743423
v -11.743423 75.981171 -11.743423
v 11.743423 75.981171 -11.743423
v 11.743423 75.981171 11.743423
v -11.743421 79.490341 11.743423
v 11.743423 79.490341 11.743423
v 11.743423 79.490341 -11.743423
v -11.743421 79.490341 -11.743423
v -21.059803 63.598324 21.059799
v -21.059799 63.598324 -21.059797
v 21.059799 63.598324 21.059799
v 21.059799 63.598324 -21.059797
v -0.000001 6.583982 21.783140
v 20.784632 26.335934 20.784634
v -0.000001 48.819496 31.623869
v -20.784634 26.335934 20.784634
v -0.000001 75.718994 11.743423
v 11.743423 75.718994 0.000000
v -0.000001 75.718994 -11.743423
v -11.743423 75.718994 0.000000
v -0.000001 48.819496 -31.623869
v 20.784632 26.335934 -20.784634
v -0.000001 6.583982 -21.783140
v -20.784634 26.335934 -20.784634
v -0.000001 -0.000001 -14.051960
v 14.051959 0.000000 0.000000
v -0.000001 -0.000001 14.051960
v -14.051959 -0.000001 0.000000
v 21.783138 6.583982 0.000000
v 31.623867 48.819496 0.000000
v -21.783138 6.583982 0.000000
v -31.623867 48.819496 0.000000
v -0.000001 80.374161 19.522186
v 13.399547 81.414047 13.399548
v -0.000001 80.933121 16.209938
v -13.399549 81.414047 13.399548
v 19.522184 80.374161 0.000000
v 13.399547 81.414047 -13.399548
v 16.209938 80.933121 0.000000
v -0.000001 80.374161 -19.522186
v -13.399549 81.414047 -13.399548
v -0.000001 80.933121 -16.209938
v -19.522190 80.374161 0.000000
v -16.209938 80.933121 0.000000
v -0.000001 76.714371 15.657896
v -0.000001 26.335934 27.712843
v -0.000001 75.631607 0.000000
v -0.000001 26.335934 -27.712843
v -0.000001 -0.000001 0.000000
v 27.712841 26.335930 0.000000
v -27.712841 26.335934 0.000000
v -0.000001 81.414047 17.866062
v 17.866062 81.414047 0.000000
v -0.000001 81.414047 -17.866062
v -17.866062 81.414047 0.000000
v -20.441116 75.076050 0.000002
v -0.000001 75.076050 -20.441114
v 20.441116 75.076050 0.000002
v -0.000001 75.076050 20.441118
v -0.000001 1.835822 -19.271259
v 19.271259 1.835820 0.000000
v -0.000001 1.835822 19.271259
v -19.271259 1.835820 0.000000
v -15.657901 75.981171 0.000000
v -0.000001 75.981171 -15.657898
v 15.657896 75.981171 0.000000
v -0.000001 75.981171 15.657898
v -0.000001 79.490356 15.657898
v 15.657896 79.490356 0.000000
v -0.000001 79.490356 -15.657898
v -15.657897 79.490356 0.000000
v -28.079731 63.598316 0.000002
v 0.000000 63.598316 28.079733
v 28.079729 63.598316 0.000002
v -0.000001 63.598324 -28.079727
vt 0.651435 0.441438
vt 0.670579 0.496190
vt 0.596684 0.496190
vt 0.596684 0.422295
vt 0.670615 0.422258
vt 0.695274 0.496189
vt 0.651436 0.550941
vt 0.596685 0.570086
vt 0.522789 0.496191
vt 0.541932 0.441440
vt 0.596683 0.397601
vt 0.670617 0.570122
vt 0.596685 0.594780
vt 0.541933 0.550942
vt 0.498095 0.496191
vt 0.522752 0.422259
vt 0.522753 0.570123
vt 0.774673 0.505616
vt 0.840625 0.484362
vt 0.839351 0.572198
vt 0.751515 0.570924
vt 0.749276 0.479472
vt 0.841132 0.449438
vt 0.905934 0.507519
vt 0.927188 0.573472
vt 0.838078 0.660034
vt 0.772769 0.636877
vt 0.716592 0.570418
vt 0.725729 0.455231
vt 0.841641 0.414344
vt 0.932078 0.482123
vt 0.962111 0.573979
vt 0.904030 0.638781
vt 0.837571 0.694958
vt 0.746625 0.662274
vt 0.681497 0.569909
vt 0.956318 0.458575
vt 0.997206 0.574487
vt 0.929427 0.664925
vt 0.837062 0.730052
vt 0.722384 0.685821
vt 0.952974 0.689165
vt 0.843246 0.739261
vt 0.876035 0.836956
vt 0.863549 0.836852
vt 0.833946 0.748392
vt 0.841628 0.934092
vt 0.832481 0.924809
vt 0.852668 0.836762
vt 0.825739 0.756450
vt 0.746070 0.704761
vt 0.745966 0.717248
vt 0.743893 0.966974
vt 0.743997 0.954487
vt 0.824409 0.916615
vt 0.842795 0.836680
vt 0.818821 0.763243
vt 0.745876 0.728131
vt 0.648335 0.737643
vt 0.657481 0.746926
vt 0.646717 0.932474
vt 0.656017 0.923343
vt 0.744087 0.943604
vt 0.817605 0.909708
vt 0.745794 0.738007
vt 0.665553 0.755120
vt 0.613928 0.834779
vt 0.626414 0.834883
vt 0.664224 0.915285
vt 0.744169 0.933728
vt 0.672358 0.762028
vt 0.637294 0.834973
vt 0.671142 0.908492
vt 0.647168 0.835055
vt 0.506732 0.370572
vt 0.492617 0.480219
vt 0.364769 0.472619
vt 0.378882 0.334606
vt 0.493642 0.590766
vt 0.362431 0.611332
vt 0.225929 0.464365
vt 0.232144 0.310867
vt 0.213914 0.617519
vt 0.134000 0.458900
vt 0.132944 0.320463
vt 0.116550 0.596237
vt 0.073385 0.455297
vt 0.069450 0.341162
vt 0.055956 0.568162
vt 0.049920 0.453902
vt 0.046138 0.349217
vt 0.033761 0.557402
vt 0.040558 0.453345
vt 0.036918 0.350590
vt 0.024770 0.554946
vt 0.012593 0.353631
vt 0.015896 0.451879
vt 0.000977 0.549045
vt 0.506732 0.060682
vt 0.492618 0.170329
vt 0.364769 0.162729
vt 0.378882 0.024716
vt 0.493642 0.280876
vt 0.362431 0.301442
vt 0.225929 0.154475
vt 0.232144 0.000977
vt 0.213914 0.307628
vt 0.134000 0.149010
vt 0.132944 0.010573
vt 0.116550 0.286347
vt 0.073386 0.145406
vt 0.069451 0.031272
vt 0.055956 0.258271
vt 0.049921 0.144011
vt 0.046138 0.039326
vt 0.033761 0.247511
vt 0.040558 0.143455
vt 0.036918 0.040699
vt 0.024770 0.245056
vt 0.012594 0.043740
vt 0.015896 0.141989
vt 0.000977 0.239154
vt 0.053204 0.731226
vt 0.035734 0.731335
vt 0.035248 0.653435
vt 0.052717 0.653326
vt 0.034761 0.575534
vt 0.052231 0.575425
vt 0.057331 0.653297
vt 0.057818 0.731197
vt 0.056845 0.575396
vt 0.082162 0.744644
vt 0.081676 0.666743
vt 0.086290 0.666714
vt 0.086776 0.744615
vt 0.064692 0.744753
vt 0.064206 0.666852
vt 0.081189 0.588842
vt 0.085803 0.588814
vt 0.063720 0.588952
vt 0.999023 0.169186
vt 0.984909 0.278833
vt 0.857060 0.271232
vt 0.871174 0.133219
vt 0.985933 0.389380
vt 0.854723 0.409945
vt 0.718220 0.262979
vt 0.724436 0.109480
vt 0.706206 0.416132
vt 0.626291 0.257514
vt 0.625236 0.119076
vt 0.608842 0.394851
vt 0.565677 0.253910
vt 0.561742 0.139776
vt 0.548248 0.366775
vt 0.542212 0.252515
vt 0.538429 0.147830
vt 0.526053 0.356015
vt 0.532849 0.251959
vt 0.529210 0.149203
vt 0.517062 0.353560
vt 0.508188 0.250493
vt 0.504885 0.152244
vt 0.493268 0.347658
vt 0.332196 0.923456
vt 0.338382 0.769956
vt 0.477435 0.772929
vt 0.480370 0.911630
vt 0.234093 0.905889
vt 0.246312 0.767988
vt 0.338761 0.616333
vt 0.486295 0.634479
vt 0.605481 0.775666
vt 0.610705 0.886094
vt 0.172476 0.880136
vt 0.185605 0.766690
vt 0.239997 0.629691
vt 0.615419 0.665562
vt 0.149889 0.870227
vt 0.162103 0.766188
vt 0.177336 0.652787
vt 0.140810 0.868115
vt 0.152727 0.765988
vt 0.154346 0.661722
vt 0.116810 0.863122
vt 0.128027 0.765460
vt 0.145185 0.663444
vt 0.120994 0.667407
vt 0.000977 0.716853
vt 0.002622 0.638968
vt 0.020088 0.639337
vt 0.018443 0.717222
vt 0.004267 0.561084
vt 0.021733 0.561453
vt 0.024701 0.639435
vt 0.023056 0.717320
vt 0.026346 0.561550
vt 0.994350 0.156808
vt 0.993863 0.078907
vt 0.998477 0.078879
vt 0.998964 0.156779
vt 0.976880 0.156917
vt 0.976393 0.079016
vt 0.993377 0.001007
vt 0.997991 0.000978
vt 0.975907 0.001116
vn -0.667100 -0.331596 0.667100
vn 0.000000 -0.316425 0.948617
vn -0.000000 -0.219031 0.975718
vn -0.688112 -0.230228 0.688112
vn 0.667100 -0.331596 0.667100
vn 0.688112 -0.230228 0.688112
vn 0.707057 -0.011875 0.707057
vn -0.000000 -0.010522 0.999945
vn -0.707057 -0.011875 0.707057
vn 0.021536 0.999536 -0.021536
vn 0.000000 0.999640 -0.026824
vn 0.000000 1.000000 0.000000
vn 0.026824 0.999640 -0.000000
vn -0.021536 0.999536 -0.021535
vn -0.026824 0.999640 0.000000
vn -0.021536 0.999536 0.021535
vn 0.000000 0.999640 0.026823
vn 0.021536 0.999536 0.021535
vn -0.707057 -0.011875 -0.707057
vn 0.000000 -0.010522 -0.999945
vn -0.000000 -0.219031 -0.975718
vn -0.688112 -0.230228 -0.688112
vn 0.707057 -0.011875 -0.707057
vn 0.688112 -0.230228 -0.688112
vn 0.667100 -0.331596 -0.667100
vn 0.000000 -0.316426 -0.948617
vn -0.667100 -0.331596 -0.667100
vn -0.102962 -0.989342 -0.102962
vn -0.000000 -0.990337 -0.138678
vn -0.000000 -1.000000 0.000000
vn -0.138678 -0.990338 0.000000
vn 0.102962 -0.989342 -0.102962
vn 0.138678 -0.990337 -0.000000
vn 0.102962 -0.989342 0.102962
vn -0.000000 -0.990337 0.138678
vn -0.102962 -0.989342 0.102962
vn 0.948617 -0.316426 -0.000000
vn 0.975718 -0.219032 0.000000
vn 0.999945 -0.010522 -0.000000
vn -0.948617 -0.316426 0.000000
vn -0.975718 -0.219032 0.000000
vn -0.999945 -0.010522 -0.000000
vn -0.654255 0.379343 0.654255
vn 0.000000 0.378515 0.925595
vn 0.000001 0.964240 0.265029
vn -0.200224 0.959073 0.200223
vn 0.654256 0.379342 0.654255
vn 0.200226 0.959072 0.200226
vn -0.391083 0.833131 -0.391084
vn 0.000000 0.802806 -0.596241
vn 0.391083 0.833131 -0.391083
vn 0.925595 0.378515 0.000000
vn 0.265031 0.964240 0.000000
vn 0.654255 0.379343 -0.654254
vn 0.200226 0.959072 -0.200226
vn -0.391083 0.833131 0.391083
vn -0.596241 0.802806 0.000000
vn -0.000000 0.378516 -0.925595
vn -0.000000 0.964240 -0.265032
vn -0.654255 0.379343 -0.654255
vn -0.200226 0.959072 -0.200226
vn 0.391083 0.833131 0.391083
vn -0.000000 0.802806 0.596241
vn -0.925595 0.378515 0.000000
vn -0.265029 0.964240 -0.000001
vn 0.596241 0.802806 0.000000
vn 0.699292 0.148259 -0.699292
vn -0.000000 0.137145 -0.990551
vn -0.000000 -0.000000 -1.000000
vn 0.707107 -0.000000 -0.707106
vn -0.699292 0.148259 -0.699293
vn -0.707107 0.000000 -0.707107
vn -0.990551 0.137145 -0.000000
vn -1.000000 0.000000 0.000000
vn -0.699293 0.148259 0.699292
vn -0.707107 -0.000000 0.707107
vn -0.577682 0.576685 -0.577682
vn -0.832492 0.554037 -0.000000
vn -0.832491 0.554038 0.000000
vn -0.577682 0.576686 -0.577682
vn -0.577682 0.576685 0.577683
vn -0.577681 0.576687 0.577682
vn -0.982545 0.186026 -0.000000
vn -0.693266 0.196886 0.693266
vn -0.695361 0.181511 0.695361
vn -0.985221 0.171291 0.000000
vn -0.693267 0.196886 -0.693266
vn -0.695361 0.181511 -0.695361
vn 0.000000 0.171291 -0.985221
vn 0.000000 0.186026 -0.982545
vn 0.695361 0.181511 -0.695361
vn 0.693265 0.196884 -0.693267
vn -0.000000 0.554037 -0.832492
vn 0.577682 0.576686 -0.577682
vn 0.577682 0.576685 -0.577682
vn 0.000000 0.554037 -0.832492
vn 0.577682 0.576685 0.577683
vn 0.832492 0.554037 0.000000
vn 0.832491 0.554038 0.000000
vn 0.577682 0.576687 0.577682
vn 0.982545 0.186027 -0.000001
vn 0.985220 0.171291 -0.000000
vn 0.693265 0.196887 0.693266
vn 0.695361 0.181512 0.695360
vn -0.000000 0.554037 0.832492
vn 0.000000 0.554038 0.832492
vn -0.000001 0.186029 0.982544
vn -0.000000 0.171291 0.985220
vn -0.000000 -0.694269 -0.719715
vn -0.508071 -0.695506 -0.508071
vn 0.508071 -0.695506 -0.508071
vn 0.719715 -0.694269 0.000000
vn 0.508071 -0.695506 0.508071
vn 0.000000 -0.694269 0.719715
vn -0.508071 -0.695506 0.508071
vn -0.719715 -0.694269 0.000000
vn 0.707108 -0.000000 0.707106
vn 1.000000 -0.000001 -0.000000
vn 0.305341 0.952243 -0.000001
vn 0.225810 0.947639 0.225809
vn 0.225810 0.947639 -0.225810
vn -0.000000 -0.000000 1.000000
vn -0.000000 0.952243 0.305341
vn -0.225810 0.947639 0.225810
vn -0.305342 0.952243 0.000000
vn -0.225810 0.947639 -0.225809
vn -0.000000 0.952243 -0.305341
vn -0.000000 0.137145 0.990551
vn 0.699292 0.148259 0.699293
vn 0.990551 0.137145 0.000000
vn -0.940106 0.340881 -0.000000
vn -0.661674 0.352670 -0.661674
vn -0.661674 0.352669 0.661674
vn 0.000000 0.340881 0.940106
vn 0.661674 0.352669 0.661674
vn 0.940106 0.340881 -0.000000
vn 0.661674 0.352669 -0.661674
vn 0.000000 0.340881 -0.940106
s 1
usemtl initialShadingGroup
f 1/141/1 68/142/2 101/143/3 71/144/4
f 68/142/2 2/145/5 69/146/6 101/143/3
f 101/143/3 69/146/6 16/149/7 70/147/8
f 71/144/4 101/143/3 70/147/8 13/148/9
s 2
f 9/1/10 72/2/11 102/3/12 75/4/13
f 72/2/11 10/7/14 73/8/15 102/3/12
f 102/3/12 73/8/15 11/14/16 74/9/17
f 75/4/13 102/3/12 74/9/17 12/10/18
s 1
f 14/165/19 76/166/20 103/167/21 79/168/22
f 76/166/20 15/171/23 77/172/24 103/167/21
f 103/167/21 77/172/24 8/178/25 78/173/26
f 79/168/22 103/167/21 78/173/26 7/174/27
f 17/18/28 80/19/29 104/20/30 83/21/31
f 80/19/29 18/24/32 81/25/33 104/20/30
f 104/20/30 81/25/33 19/33/34 82/26/35
f 83/21/31 104/20/30 82/26/35 20/27/36
f 2/75/5 84/76/37 105/77/38 69/78/6
f 84/76/37 8/79/25 77/80/24 105/77/38
f 105/77/38 77/80/24 15/83/23 85/81/39
f 69/78/6 105/77/38 85/81/39 16/82/7
f 7/99/27 86/100/40 106/101/41 79/102/22
f 86/100/40 1/103/1 71/104/4 106/101/41
f 106/101/41 71/104/4 13/107/9 87/105/42
f 79/102/22 106/101/41 87/105/42 14/106/19
s 2
f 25/43/43 88/44/44 107/45/45 91/46/46
f 88/44/44 26/47/47 89/48/48 107/45/45
f 107/45/45 89/48/48 27/55/49 90/49/50
f 91/46/46 107/45/45 90/49/50 28/50/51
f 26/47/47 92/53/52 108/54/53 89/48/48
f 92/53/52 29/61/54 93/62/55 108/54/53
f 108/54/53 93/62/55 30/69/56 94/63/57
f 89/48/48 108/54/53 94/63/57 27/55/49
f 29/61/54 95/67/58 109/68/59 93/62/55
f 95/67/58 31/59/60 96/60/61 109/68/59
f 109/68/59 96/60/61 32/66/62 97/72/63
f 93/62/55 109/68/59 97/72/63 30/69/56
f 31/59/60 98/51/64 110/52/65 96/60/61
f 98/51/64 25/43/43 91/46/46 110/52/65
f 110/52/65 91/46/46 28/50/51 99/58/66
f 96/60/61 110/52/65 99/58/66 32/66/62
f 60/189/67 123/190/68 100/191/69 21/192/70
f 123/190/68 61/193/71 24/194/72 100/191/69
f 24/123/72 61/124/71 124/125/73 37/126/74
f 124/125/73 62/127/75 23/128/76 37/126/74
s 1
f 33/112/77 40/111/78 111/114/79 43/115/80
f 40/111/78 34/113/81 41/116/82 111/114/79
s 2
f 111/114/83 41/116/84 3/119/85 42/117/86
f 43/115/87 111/114/83 42/117/86 5/118/88
f 5/182/88 44/183/89 112/180/90 43/179/87
f 44/183/89 6/187/91 45/184/92 112/180/90
s 1
f 112/180/93 45/184/94 36/181/95 46/176/96
f 43/179/80 112/180/93 46/176/96 33/175/77
f 35/88/97 47/87/98 113/90/99 49/91/100
f 47/87/98 36/89/95 45/92/94 113/90/99
s 2
f 113/90/101 45/92/92 6/95/91 48/93/102
f 49/91/103 113/90/101 48/93/102 4/94/104
s 1
f 34/154/81 50/153/105 114/156/106 41/157/82
f 50/153/105 35/155/97 49/158/100 114/156/106
s 2
f 114/156/107 49/158/103 4/161/104 51/159/108
f 41/157/84 114/156/107 51/159/108 3/160/85
s 1
f 7/29/27 78/30/26 115/23/109 53/22/110
f 78/30/26 8/37/25 52/31/111 115/23/109
f 115/23/109 52/31/111 18/24/32 80/19/29
f 53/22/110 115/23/109 80/19/29 17/18/28
f 8/37/25 84/38/37 116/32/112 52/31/111
f 84/38/37 2/42/5 54/39/113 116/32/112
f 116/32/112 54/39/113 19/33/34 81/25/33
f 52/31/111 116/32/112 81/25/33 18/24/32
f 2/42/5 68/40/2 117/34/114 54/39/113
f 68/40/2 1/41/1 55/35/115 117/34/114
f 117/34/114 55/35/115 20/27/36 82/26/35
f 54/39/113 117/34/114 82/26/35 19/33/34
f 1/41/1 86/36/40 118/28/116 55/35/115
f 86/36/40 7/29/27 53/22/110 118/28/116
f 118/28/116 53/22/110 17/18/28 83/21/31
f 55/35/115 118/28/116 83/21/31 20/27/36
s 2
f 22/132/117 39/133/118 119/134/119 57/135/120
f 39/133/118 21/138/70 56/139/121 119/134/119
f 119/11/119 56/5/121 9/1/10 75/4/13
f 57/16/120 119/11/119 75/4/13 12/10/18
f 23/198/76 38/199/122 120/200/123 58/201/124
f 38/199/122 22/204/117 57/205/120 120/200/123
f 120/15/123 57/16/120 12/10/18 74/9/17
f 58/17/124 120/15/123 74/9/17 11/14/16
f 24/123/72 37/126/74 121/129/125 59/130/126
f 37/126/74 23/128/76 58/131/124 121/129/125
f 121/13/125 58/17/124 11/14/16 73/8/15
f 59/12/126 121/13/125 73/8/15 10/7/14
f 21/192/70 100/191/69 122/195/127 56/196/121
f 100/191/69 24/194/72 59/197/126 122/195/127
f 122/6/127 59/12/126 10/7/14 72/2/11
f 56/5/121 122/6/127 72/2/11 9/1/10
f 3/160/85 51/159/108 88/162/44 25/163/43
f 51/159/108 4/161/104 26/164/47 88/162/44
f 123/56/68 60/57/67 28/50/51 90/49/50
f 61/64/71 123/56/68 90/49/50 27/55/49
f 26/96/47 4/94/104 48/93/102 92/97/52
f 48/93/102 6/95/91 29/98/54 92/97/52
f 124/70/73 61/64/71 27/55/49 94/63/57
f 62/73/75 124/70/73 94/63/57 30/69/56
f 29/188/54 6/187/91 44/183/89 95/186/58
f 44/183/89 5/182/88 31/185/60 95/186/58
f 125/203/128 63/206/129 22/204/117 38/199/122
f 23/198/76 62/202/75 125/203/128 38/199/122
f 125/74/128 62/73/75 30/69/56 97/72/63
f 63/71/129 125/74/128 97/72/63 32/66/62
f 31/120/60 5/118/88 42/117/86 98/121/64
f 42/117/86 3/119/85 25/122/43 98/121/64
f 126/137/130 60/140/67 21/138/70 39/133/118
f 22/132/117 63/136/129 126/137/130 39/133/118
f 126/65/130 63/71/129 32/66/62 99/58/66
f 60/57/67 126/65/130 99/58/66 28/50/51
s 1
f 14/106/19 87/105/42 127/108/131 65/109/132
f 87/105/42 13/107/9 64/110/133 127/108/131
f 127/108/131 64/110/133 34/113/81 40/111/78
f 65/109/132 127/108/131 40/111/78 33/112/77
f 13/148/9 70/147/8 128/150/134 64/151/133
f 70/147/8 16/149/7 66/152/135 128/150/134
f 128/150/134 66/152/135 35/155/97 50/153/105
f 64/151/133 128/150/134 50/153/105 34/154/81
f 16/82/7 85/81/39 129/84/136 66/85/135
f 85/81/39 15/83/23 67/86/137 129/84/136
f 129/84/136 67/86/137 36/89/95 47/87/98
f 66/85/135 129/84/136 47/87/98 35/88/97
f 33/175/77 46/176/96 130/170/138 65/169/132
f 46/176/96 36/181/95 67/177/137 130/170/138
f 130/170/138 67/177/137 15/171/23 76/166/20
f 65/169/132 130/170/138 76/166/20 14/165/19
