# This file uses meters as units for non-parametric coordinates.

mtllib SmallPot.mtl
v -16.337357 4.535378 16.337355
v 16.337355 4.535378 16.337355
v -15.124467 52.717274 15.124462
v 15.124462 52.717270 15.124462
v -15.124461 52.717274 -15.124462
v 15.124462 52.717274 -15.124462
v -16.337357 4.535378 -16.337355
v 16.337353 4.535377 -16.337355
v -8.698833 52.205849 8.698833
v 8.698832 52.205849 8.698833
v 8.698832 52.205849 -8.698833
v -8.698833 52.205849 -8.698833
v -23.717907 33.629311 23.717903
v -23.717907 33.629311 -23.717903
v 23.717903 33.629307 -23.717903
v 23.717903 33.629307 23.717903
v -10.527820 -0.000003 -10.527818
v 10.527817 -0.000004 -10.527818
v 10.527817 -0.000004 10.527818
v -10.527820 0.000000 10.527818
v -11.743426 52.844700 11.743423
v -11.743426 52.844700 -11.743422
v 11.743421 52.844692 -11.743423
v 11.743423 52.844700 11.743422
v -14.641643 55.365749 14.641641
v 14.641639 55.365746 14.641641
v 12.157454 55.750786 12.157454
v -12.157456 55.750786 12.157454
v 14.641639 55.365746 -14.641641
v 12.157454 55.750786 -12.157454
v -14.641644 55.365746 -14.641641
v -12.157454 55.750786 -12.157454
v -16.900661 49.549656 -16.900660
v -16.900665 49.549656 16.900663
v 16.900660 49.549656 16.900663
v 16.900658 49.549656 -16.900660
v 15.657896 52.844700 0.000000
v -0.000001 52.844700 -15.657896
v -15.657893 52.844700 0.000000
v -22.534214 49.549656 0.000002
v -15.330838 51.716141 15.330839
v -20.165951 52.717274 0.000000
v -15.330838 51.716141 -15.330836
v -0.000001 52.717274 -20.165951
v 15.330835 51.716141 -15.330836
v 0.000000 49.549656 -22.534210
v 22.534214 49.549656 0.000002
v 20.165949 52.717281 0.000000
v 15.330837 51.716141 15.330839
v -0.000003 49.549656 22.534216
v -0.000001 52.717274 20.165951
v 14.453444 1.264606 -14.453444
v -14.453446 1.264606 -14.453444
v 14.453444 1.264606 14.453444
v -14.453446 1.264606 14.453444
v -11.743423 52.339634 11.743423
v -11.743423 52.339634 -11.743423
v 11.743423 52.339634 -11.743423
v 11.743423 52.339634 11.743423
v -11.743421 54.756924 11.743423
v 11.743423 54.756924 11.743423
v 11.743423 54.756924 -11.743423
v -11.743421 54.756924 -11.743423
v -21.059803 43.809704 21.059799
v -21.059799 43.809704 -21.059797
v 21.059799 43.809704 21.059799
v 21.059799 43.809704 -21.059797
v -0.000001 4.535378 21.783140
v 20.784632 18.141508 20.784634
v -0.000001 33.629311 31.623869
v -20.784634 18.141508 20.784634
v -0.000001 52.159031 11.743423
v 11.743423 52.159031 0.000000
v -0.000001 52.159031 -11.743423
v -11.743423 52.159031 0.000000
v -0.000001 33.629311 -31.623869
v 20.784632 18.141508 -20.784634
v -0.000001 4.535378 -21.783140
v -20.784634 18.141508 -20.784634
v -0.000001 0.000000 -14.051960
v 14.051959 0.000001 0.000000
v -0.000001 0.000000 14.051960
v -14.051959 0.000000 0.000000
v 21.783138 4.535377 0.000000
v 31.623867 33.629311 0.000000
v -21.783138 4.535377 0.000000
v -31.623867 33.629311 0.000000
v -0.000001 55.365746 19.522186
v 13.399547 56.082062 13.399548
v -0.000001 55.750778 16.209938
v -13.399549 56.082062 13.399548
v 19.522184 55.365746 0.000000
v 13.399547 56.082062 -13.399548
v 16.209938 55.750778 0.000000
v -0.000001 55.365746 -19.522186
v -13.399549 56.082062 -13.399548
v -0.000001 55.750778 -16.209938
v -19.522190 55.365746 0.000000
v -16.209938 55.750778 0.000000
v -0.000001 52.844700 15.657896
v -0.000001 18.141508 27.712843
v -0.000001 52.098827 0.000000
v -0.000001 18.141508 -27.712843
v -0.000001 0.000000 0.000000
v 27.712841 18.141504 0.000000
v -27.712841 18.141508 0.000000
v -0.000001 56.082066 17.866062
v 17.866062 56.082066 0.000000
v -0.000001 56.082066 -17.866062
v -17.866062 56.082066 0.000000
v -20.441116 51.716141 0.000002
v -0.000001 51.716141 -20.441114
v 20.441116 51.716141 0.000002
v -0.000001 51.716141 20.441118
v -0.000001 1.264606 -19.271259
v 19.271259 1.264606 0.000000
v -0.000001 1.264606 19.271259
v -19.271259 1.264606 0.000000
v -15.657901 52.339634 0.000000
v -0.000001 52.339634 -15.657898
v 15.657896 52.339634 0.000000
v -0.000001 52.339634 15.657898
v -0.000001 54.756927 15.657898
v 15.657896 54.756927 0.000000
v -0.000001 54.756927 -15.657898
v -15.657897 54.756927 0.000000
v -28.079731 43.809700 0.000002
v 0.000000 43.809700 28.079733
v 28.079729 43.809700 0.000002
v -0.000001 43.809704 -28.079727
vt 0.922004 0.050030
vt 0.943445 0.111319
vt 0.860714 0.111320
vt 0.860714 0.028589
vt 0.943464 0.028569
vt 0.971056 0.111319
vt 0.922004 0.172609
vt 0.860715 0.194051
vt 0.777983 0.111320
vt 0.799424 0.050030
vt 0.860714 0.000978
vt 0.943465 0.194070
vt 0.860715 0.221661
vt 0.799425 0.172610
vt 0.750373 0.111320
vt 0.777963 0.028570
vt 0.777964 0.194071
vt 0.094595 0.093300
vt 0.168689 0.068932
vt 0.167822 0.167822
vt 0.068932 0.166955
vt 0.066620 0.064829
vt 0.169023 0.030908
vt 0.242345 0.094595
vt 0.266712 0.168689
vt 0.166955 0.266712
vt 0.093300 0.241049
vt 0.030908 0.166622
vt 0.045730 0.043569
vt 0.169285 0.000977
vt 0.270815 0.066620
vt 0.304736 0.169023
vt 0.241049 0.242345
vt 0.166622 0.304736
vt 0.064829 0.269024
vt 0.000977 0.166359
vt 0.292075 0.045730
vt 0.334668 0.169285
vt 0.269024 0.270815
vt 0.166359 0.334668
vt 0.043569 0.289915
vt 0.289915 0.292075
vt 0.445675 0.749166
vt 0.552394 0.713529
vt 0.552329 0.726345
vt 0.455154 0.758754
vt 0.658744 0.750256
vt 0.649167 0.759747
vt 0.552268 0.738255
vt 0.464024 0.767726
vt 0.408876 0.855546
vt 0.421693 0.855611
vt 0.694452 0.857007
vt 0.681635 0.856941
vt 0.640206 0.768628
vt 0.552226 0.746389
vt 0.469768 0.773536
vt 0.433606 0.855672
vt 0.444584 0.962296
vt 0.454161 0.952805
vt 0.657653 0.963386
vt 0.648174 0.953798
vt 0.669722 0.856880
vt 0.634403 0.774379
vt 0.441741 0.855714
vt 0.463122 0.943925
vt 0.550934 0.999023
vt 0.550999 0.986207
vt 0.639304 0.944826
vt 0.661587 0.856839
vt 0.468925 0.938174
vt 0.551060 0.974297
vt 0.633560 0.939016
vt 0.551102 0.966163
vt 0.938017 0.469101
vt 0.922001 0.593989
vt 0.820250 0.588133
vt 0.834891 0.433530
vt 0.923583 0.719890
vt 0.817056 0.743394
vt 0.713285 0.581976
vt 0.718280 0.412031
vt 0.698749 0.751372
vt 0.641207 0.577828
vt 0.638808 0.423830
vt 0.621155 0.730534
vt 0.587980 0.574764
vt 0.582338 0.446737
vt 0.567686 0.701299
vt 0.567288 0.573573
vt 0.561707 0.455750
vt 0.548226 0.689978
vt 0.559957 0.573151
vt 0.554460 0.457263
vt 0.541200 0.687644
vt 0.535441 0.460757
vt 0.540679 0.572042
vt 0.522708 0.681991
vt 0.748296 0.058052
vt 0.732281 0.182941
vt 0.630530 0.177084
vt 0.645170 0.022482
vt 0.733862 0.308842
vt 0.627336 0.332346
vt 0.523565 0.170928
vt 0.528559 0.000983
vt 0.509028 0.340324
vt 0.451486 0.166779
vt 0.449087 0.012781
vt 0.431434 0.319485
vt 0.398259 0.163716
vt 0.392617 0.035688
vt 0.377966 0.290251
vt 0.377568 0.162525
vt 0.371987 0.044701
vt 0.358505 0.278930
vt 0.370237 0.162103
vt 0.364739 0.046215
vt 0.351480 0.276595
vt 0.345721 0.049709
vt 0.350958 0.160993
vt 0.332988 0.270942
vt 0.972865 0.353423
vt 0.959393 0.353448
vt 0.959229 0.266237
vt 0.972702 0.266212
vt 0.959066 0.179026
vt 0.972538 0.179001
vt 0.976260 0.266205
vt 0.976424 0.353416
vt 0.976096 0.178994
vt 0.778401 0.375521
vt 0.778238 0.288310
vt 0.781796 0.288303
vt 0.781960 0.375514
vt 0.764929 0.375546
vt 0.764766 0.288335
vt 0.778074 0.201099
vt 0.781633 0.201092
vt 0.764602 0.201124
vt 0.539603 0.362446
vt 0.523588 0.487335
vt 0.421837 0.481478
vt 0.436477 0.326876
vt 0.525169 0.613236
vt 0.418643 0.636740
vt 0.314872 0.475322
vt 0.319867 0.305377
vt 0.300336 0.644718
vt 0.242793 0.471174
vt 0.240394 0.317176
vt 0.222742 0.623879
vt 0.189566 0.468110
vt 0.183925 0.340083
vt 0.169273 0.594645
vt 0.168875 0.466919
vt 0.163294 0.349096
vt 0.149813 0.583324
vt 0.161544 0.466497
vt 0.156046 0.350609
vt 0.142787 0.580990
vt 0.142265 0.465388
vt 0.137028 0.354103
vt 0.124295 0.575337
vt 0.179900 0.973275
vt 0.186968 0.803404
vt 0.294100 0.804847
vt 0.297742 0.960098
vt 0.101464 0.955872
vt 0.114776 0.802431
vt 0.184479 0.633404
vt 0.301922 0.649750
vt 0.396010 0.806220
vt 0.403130 0.931929
vt 0.046761 0.929018
vt 0.061466 0.801713
vt 0.105602 0.648688
vt 0.406514 0.680748
vt 0.026821 0.918565
vt 0.040742 0.801434
vt 0.050195 0.674058
vt 0.019699 0.916542
vt 0.033400 0.801335
vt 0.029981 0.683970
vt 0.000977 0.911708
vt 0.014091 0.801075
vt 0.022808 0.685801
vt 0.003961 0.690129
vt 0.978038 0.175407
vt 0.978582 0.088197
vt 0.992054 0.088281
vt 0.991510 0.175491
vt 0.979127 0.000988
vt 0.992599 0.001072
vt 0.995613 0.088304
vt 0.995068 0.175513
vt 0.996157 0.001094
vt 0.754687 0.332093
vt 0.754523 0.244881
vt 0.758081 0.244875
vt 0.758245 0.332086
vt 0.741214 0.332118
vt 0.741051 0.244907
vt 0.754359 0.157670
vt 0.757917 0.157664
vt 0.740887 0.157696
vn -0.630677 -0.452210 0.630677
vn -0.000000 -0.434237 0.900799
vn -0.000000 -0.308388 0.951261
vn -0.669311 -0.322561 0.669311
vn 0.630677 -0.452210 0.630677
vn 0.669311 -0.322561 0.669311
vn 0.706987 -0.018415 0.706987
vn -0.000000 -0.015992 0.999872
vn -0.706987 -0.018415 0.706987
vn 0.014839 0.999780 -0.014839
vn -0.000000 0.999829 -0.018484
vn -0.000000 1.000000 0.000000
vn 0.018485 0.999829 -0.000000
vn -0.014839 0.999780 -0.014839
vn -0.018485 0.999829 0.000000
vn -0.014839 0.999780 0.014839
vn 0.000000 0.999829 0.018484
vn 0.014839 0.999780 0.014839
vn -0.706987 -0.018415 -0.706987
vn 0.000000 -0.015992 -0.999872
vn 0.000000 -0.308388 -0.951261
vn -0.669311 -0.322561 -0.669311
vn 0.706987 -0.018415 -0.706987
vn 0.669311 -0.322561 -0.669311
vn 0.630676 -0.452210 -0.630677
vn -0.000000 -0.434236 -0.900799
vn -0.630677 -0.452210 -0.630677
vn -0.071570 -0.994865 -0.071570
vn -0.000000 -0.995352 -0.096304
vn -0.000000 -1.000000 0.000000
vn -0.096304 -0.995352 0.000000
vn 0.071570 -0.994865 -0.071570
vn 0.096304 -0.995352 0.000000
vn 0.071570 -0.994865 0.071570
vn -0.000000 -0.995352 0.096304
vn -0.071570 -0.994865 0.071570
vn 0.900799 -0.434237 -0.000000
vn 0.951261 -0.308388 -0.000000
vn 0.999872 -0.015992 -0.000000
vn -0.900799 -0.434237 0.000000
vn -0.951261 -0.308388 -0.000000
vn -0.999872 -0.015992 -0.000000
vn -0.611197 0.502869 0.611197
vn 0.000000 0.504599 0.863354
vn 0.000000 0.982060 0.188571
vn -0.143075 0.979316 0.143076
vn 0.611197 0.502868 0.611198
vn 0.143076 0.979316 0.143075
vn -0.288456 0.913010 -0.288456
vn 0.000000 0.893122 -0.449814
vn 0.288456 0.913010 -0.288454
vn 0.863353 0.504600 0.000000
vn 0.188572 0.982060 0.000000
vn 0.611197 0.502868 -0.611197
vn 0.143076 0.979316 -0.143075
vn -0.288456 0.913010 0.288455
vn -0.449815 0.893122 -0.000000
vn -0.000000 0.504599 -0.863354
vn -0.000000 0.982060 -0.188570
vn -0.611197 0.502868 -0.611197
vn -0.143075 0.979316 -0.143075
vn 0.288456 0.913010 0.288455
vn 0.000000 0.893122 0.449814
vn -0.863354 0.504600 -0.000000
vn -0.188571 0.982060 0.000000
vn 0.449815 0.893122 -0.000000
vn 0.690255 0.217010 -0.690257
vn 0.000000 0.199959 -0.979804
vn 0.000000 -0.000000 -1.000000
vn 0.707107 -0.000001 -0.707107
vn -0.690256 0.217010 -0.690256
vn -0.707107 0.000000 -0.707107
vn -0.979804 0.199959 0.000000
vn -1.000000 0.000000 0.000000
vn -0.690256 0.217010 0.690256
vn -0.707107 0.000000 0.707107
vn -0.493856 0.715690 -0.493856
vn -0.719183 0.694821 -0.000000
vn -0.719182 0.694821 -0.000000
vn -0.493856 0.715690 -0.493856
vn -0.493856 0.715690 0.493856
vn -0.493855 0.715691 0.493856
vn -0.964242 0.265025 0.000000
vn -0.678848 0.279876 0.678848
vn -0.682958 0.259110 0.682957
vn -0.969548 0.244900 -0.000000
vn -0.678849 0.279877 -0.678847
vn -0.682957 0.259109 -0.682958
vn 0.000000 0.244900 -0.969548
vn 0.000000 0.265025 -0.964242
vn 0.682957 0.259109 -0.682958
vn 0.678849 0.279874 -0.678848
vn 0.000000 0.694821 -0.719183
vn 0.493856 0.715690 -0.493856
vn 0.493856 0.715690 -0.493856
vn 0.000000 0.694821 -0.719183
vn 0.493856 0.715690 0.493856
vn 0.719183 0.694821 0.000000
vn 0.719183 0.694821 -0.000000
vn 0.493855 0.715690 0.493857
vn 0.964242 0.265024 -0.000000
vn 0.969548 0.244901 -0.000000
vn 0.678849 0.279878 0.678847
vn 0.682957 0.259110 0.682958
vn -0.000000 0.694821 0.719183
vn 0.000000 0.694820 0.719183
vn -0.000000 0.265028 0.964241
vn 0.000000 0.244901 0.969548
vn -0.000000 -0.810418 -0.585853
vn -0.414468 -0.810205 -0.414468
vn 0.414468 -0.810206 -0.414468
vn 0.585853 -0.810418 -0.000000
vn 0.414468 -0.810205 0.414468
vn -0.000000 -0.810418 0.585853
vn -0.414468 -0.810206 0.414468
vn -0.585853 -0.810418 0.000000
vn 0.707107 -0.000001 0.707107
vn 1.000000 -0.000001 0.000000
vn 0.215738 0.976451 -0.000000
vn 0.159923 0.974089 0.159923
vn 0.159923 0.974089 -0.159923
vn 0.000000 -0.000000 1.000000
vn 0.000000 0.976452 0.215736
vn -0.159922 0.974089 0.159921
vn -0.215738 0.976451 -0.000000
vn -0.159923 0.974089 -0.159923
vn 0.000000 0.976451 -0.215738
vn -0.000000 0.199959 0.979804
vn 0.690255 0.217010 0.690257
vn 0.979804 0.199959 0.000000
vn -0.887240 0.461308 -0.000000
vn -0.622894 0.473294 -0.622894
vn -0.622894 0.473294 0.622894
vn 0.000000 0.461308 0.887240
vn 0.622894 0.473294 0.622894
vn 0.887240 0.461308 0.000000
vn 0.622894 0.473294 -0.622893
vn 0.000000 0.461308 -0.887240
s 1
usemtl initialShadingGroup
f 1/141/1 68/142/2 101/143/3 71/144/4
f 68/142/2 2/145/5 69/146/6 101/143/3
f 101/143/3 69/146/6 16/149/7 70/147/8
f 71/144/4 101/143/3 70/147/8 13/148/9
s 2
f 9/1/10 72/2/11 102/3/12 75/4/13
f 72/2/11 10/7/14 73/8/15 102/3/12
f 102/3/12 73/8/15 11/14/16 74/9/17
f 75/4/13 102/3/12 74/9/17 12/10/18
s 1
f 14/165/19 76/166/20 103/167/21 79/168/22
f 76/166/20 15/171/23 77/172/24 103/167/21
f 103/167/21 77/172/24 8/178/25 78/173/26
f 79/168/22 103/167/21 78/173/26 7/174/27
f 17/18/28 80/19/29 104/20/30 83/21/31
f 80/19/29 18/24/32 81/25/33 104/20/30
f 104/20/30 81/25/33 19/33/34 82/26/35
f 83/21/31 104/20/30 82/26/35 20/27/36
f 2/75/5 84/76/37 105/77/38 69/78/6
f 84/76/37 8/79/25 77/80/24 105/77/38
f 105/77/38 77/80/24 15/83/23 85/81/39
f 69/78/6 105/77/38 85/81/39 16/82/7
f 7/99/27 86/100/40 106/101/41 79/102/22
f 86/100/40 1/103/1 71/104/4 106/101/41
f 106/101/41 71/104/4 13/107/9 87/105/42
f 79/102/22 106/101/41 87/105/42 14/106/19
s 2
f 25/43/43 88/44/44 107/45/45 91/46/46
f 88/44/44 26/47/47 89/48/48 107/45/45
f 107/45/45 89/48/48 27/55/49 90/49/50
f 91/46/46 107/45/45 90/49/50 28/50/51
f 26/47/47 92/53/52 108/54/53 89/48/48
f 92/53/52 29/61/54 93/62/55 108/54/53
f 108/54/53 93/62/55 30/69/56 94/63/57
f 89/48/48 108/54/53 94/63/57 27/55/49
f 29/61/54 95/67/58 109/68/59 93/62/55
f 95/67/58 31/59/60 96/60/61 109/68/59
f 109/68/59 96/60/61 32/66/62 97/72/63
f 93/62/55 109/68/59 97/72/63 30/69/56
f 31/59/60 98/51/64 110/52/65 96/60/61
f 98/51/64 25/43/43 91/46/46 110/52/65
f 110/52/65 91/46/46 28/50/51 99/58/66
f 96/60/61 110/52/65 99/58/66 32/66/62
f 60/189/67 123/190/68 100/191/69 21/192/70
f 123/190/68 61/193/71 24/194/72 100/191/69
f 24/123/72 61/124/71 124/125/73 37/126/74
f 124/125/73 62/127/75 23/128/76 37/126/74
s 1
f 33/112/77 40/111/78 111/114/79 43/115/80
f 40/111/78 34/113/81 41/116/82 111/114/79
s 2
f 111/114/83 41/116/84 3/119/85 42/117/86
f 43/115/87 111/114/83 42/117/86 5/118/88
f 5/182/88 44/183/89 112/180/90 43/179/87
f 44/183/89 6/187/91 45/184/92 112/180/90
s 1
f 112/180/93 45/184/94 36/181/95 46/176/96
f 43/179/80 112/180/93 46/176/96 33/175/77
f 35/88/97 47/87/98 113/90/99 49/91/100
f 47/87/98 36/89/95 45/92/94 113/90/99
s 2
f 113/90/101 45/92/92 6/95/91 48/93/102
f 49/91/103 113/90/101 48/93/102 4/94/104
s 1
f 34/154/81 50/153/105 114/156/106 41/157/82
f 50/153/105 35/155/97 49/158/100 114/156/106
s 2
f 114/156/107 49/158/103 4/161/104 51/159/108
f 41/157/84 114/156/107 51/159/108 3/160/85
s 1
f 7/29/27 78/30/26 115/23/109 53/22/110
f 78/30/26 8/37/25 52/31/111 115/23/109
f 115/23/109 52/31/111 18/24/32 80/19/29
f 53/22/110 115/23/109 80/19/29 17/18/28
f 8/37/25 84/38/37 116/32/112 52/31/111
f 84/38/37 2/42/5 54/39/113 116/32/112
f 116/32/112 54/39/113 19/33/34 81/25/33
f 52/31/111 116/32/112 81/25/33 18/24/32
f 2/42/5 68/40/2 117/34/114 54/39/113
f 68/40/2 1/41/1 55/35/115 117/34/114
f 117/34/114 55/35/115 20/27/36 82/26/35
f 54/39/113 117/34/114 82/26/35 19/33/34
f 1/41/1 86/36/40 118/28/116 55/35/115
f 86/36/40 7/29/27 53/22/110 118/28/116
f 118/28/116 53/22/110 17/18/28 83/21/31
f 55/35/115 118/28/116 83/21/31 20/27/36
s 2
f 22/132/117 39/133/118 119/134/119 57/135/120
f 39/133/118 21/138/70 56/139/121 119/134/119
f 119/11/119 56/5/121 9/1/10 75/4/13
f 57/16/120 119/11/119 75/4/13 12/10/18
f 23/198/76 38/199/122 120/200/123 58/201/124
f 38/199/122 22/204/117 57/205/120 120/200/123
f 120/15/123 57/16/120 12/10/18 74/9/17
f 58/17/124 120/15/123 74/9/17 11/14/16
f 24/123/72 37/126/74 121/129/125 59/130/126
f 37/126/74 23/128/76 58/131/124 121/129/125
f 121/13/125 58/17/124 11/14/16 73/8/15
f 59/12/126 121/13/125 73/8/15 10/7/14
f 21/192/70 100/191/69 122/195/127 56/196/121
f 100/191/69 24/194/72 59/197/126 122/195/127
f 122/6/127 59/12/126 10/7/14 72/2/11
f 56/5/121 122/6/127 72/2/11 9/1/10
f 3/160/85 51/159/108 88/162/44 25/163/43
f 51/159/108 4/161/104 26/164/47 88/162/44
f 123/56/68 60/57/67 28/50/51 90/49/50
f 61/64/71 123/56/68 90/49/50 27/55/49
f 26/96/47 4/94/104 48/93/102 92/97/52
f 48/93/102 6/95/91 29/98/54 92/97/52
f 124/70/73 61/64/71 27/55/49 94/63/57
f 62/73/75 124/70/73 94/63/57 30/69/56
f 29/188/54 6/187/91 44/183/89 95/186/58
f 44/183/89 5/182/88 31/185/60 95/186/58
f 125/203/128 63/206/129 22/204/117 38/199/122
f 23/198/76 62/202/75 125/203/128 38/199/122
f 125/74/128 62/73/75 30/69/56 97/72/63
f 63/71/129 125/74/128 97/72/63 32/66/62
f 31/120/60 5/118/88 42/117/86 98/121/64
f 42/117/86 3/119/85 25/122/43 98/121/64
f 126/137/130 60/140/67 21/138/70 39/133/118
f 22/132/117 63/136/129 126/137/130 39/133/118
f 126/65/130 63/71/129 32/66/62 99/58/66
f 60/57/67 126/65/130 99/58/66 28/50/51
s 1
f 14/106/19 87/105/42 127/108/131 65/109/132
f 87/105/42 13/107/9 64/110/133 127/108/131
f 127/108/131 64/110/133 34/113/81 40/111/78
f 65/109/132 127/108/131 40/111/78 33/112/77
f 13/148/9 70/147/8 128/150/134 64/151/133
f 70/147/8 16/149/7 66/152/135 128/150/134
f 128/150/134 66/152/135 35/155/97 50/153/105
f 64/151/133 128/150/134 50/153/105 34/154/81
f 16/82/7 85/81/39 129/84/136 66/85/135
f 85/81/39 15/83/23 67/86/137 129/84/136
f 129/84/136 67/86/137 36/89/95 47/87/98
f 66/85/135 129/84/136 47/87/98 35/88/97
f 33/175/77 46/176/96 130/170/138 65/169/132
f 46/176/96 36/181/95 67/177/137 130/170/138
f 130/170/138 67/177/137 15/171/23 76/166/20
f 65/169/132 130/170/138 76/166/20 14/165/19
